<mxfile host="65bd71144e">
    <diagram id="7VxrnheGejHO6PM93f5i" name="electricity">
        <mxGraphModel dx="969" dy="1636" grid="1" gridSize="10" guides="1" tooltips="1" connect="1" arrows="1" fold="1" page="1" pageScale="1" pageWidth="850" pageHeight="1100" math="0" shadow="0">
            <root>
                <mxCell id="0"/>
                <mxCell id="1" parent="0"/>
                <mxCell id="8" value="" style="rounded=1;whiteSpace=wrap;html=1;" parent="1" vertex="1">
                    <mxGeometry x="210" y="-975" width="60" height="10" as="geometry"/>
                </mxCell>
                <mxCell id="13" value="" style="endArrow=none;html=1;" parent="1" edge="1">
                    <mxGeometry width="50" height="50" relative="1" as="geometry">
                        <mxPoint x="210" y="-1000" as="sourcePoint"/>
                        <mxPoint x="90" y="-1020" as="targetPoint"/>
                        <Array as="points">
                            <mxPoint x="210" y="-1020"/>
                        </Array>
                    </mxGeometry>
                </mxCell>
                <mxCell id="16" value="" style="endArrow=none;html=1;" parent="1" edge="1">
                    <mxGeometry width="50" height="50" relative="1" as="geometry">
                        <mxPoint x="80" y="-940" as="sourcePoint"/>
                        <mxPoint x="80" y="-1000" as="targetPoint"/>
                    </mxGeometry>
                </mxCell>
                <mxCell id="3" value="" style="rounded=1;whiteSpace=wrap;html=1;shadow=1;" parent="1" vertex="1">
                    <mxGeometry x="100" y="-1000" width="120" height="60" as="geometry"/>
                </mxCell>
                <mxCell id="34" value="&lt;font style=&quot;font-size: 14px;&quot;&gt;Dvigatel&amp;nbsp; &amp;nbsp;50 V&lt;/font&gt;" style="text;html=1;strokeColor=none;fillColor=none;align=center;verticalAlign=middle;whiteSpace=wrap;rounded=0;shadow=1;" parent="1" vertex="1">
                    <mxGeometry x="110" y="-977.5" width="100" height="15" as="geometry"/>
                </mxCell>
                <mxCell id="41" value="" style="shape=cylinder3;whiteSpace=wrap;html=1;boundedLbl=1;backgroundOutline=1;size=15;rotation=90;" parent="1" vertex="1">
                    <mxGeometry x="168.58" y="-882.86" width="204.28" height="20" as="geometry"/>
                </mxCell>
                <mxCell id="55" value="" style="rounded=1;whiteSpace=wrap;html=1;" parent="1" vertex="1">
                    <mxGeometry x="210" y="-785" width="60" height="10" as="geometry"/>
                </mxCell>
                <mxCell id="56" value="" style="shape=cylinder3;whiteSpace=wrap;html=1;boundedLbl=1;backgroundOutline=1;size=15;rotation=90;" parent="1" vertex="1">
                    <mxGeometry x="254.14000000000001" y="-784.24" width="15.86" height="8.49" as="geometry"/>
                </mxCell>
                <mxCell id="57" value="" style="endArrow=none;html=1;" parent="1" edge="1">
                    <mxGeometry width="50" height="50" relative="1" as="geometry">
                        <mxPoint x="210" y="-810.0000000000001" as="sourcePoint"/>
                        <mxPoint x="90" y="-830.0000000000001" as="targetPoint"/>
                        <Array as="points">
                            <mxPoint x="210" y="-830"/>
                        </Array>
                    </mxGeometry>
                </mxCell>
                <mxCell id="58" value="" style="endArrow=none;html=1;" parent="1" edge="1">
                    <mxGeometry width="50" height="50" relative="1" as="geometry">
                        <mxPoint x="80" y="-750.0000000000001" as="sourcePoint"/>
                        <mxPoint x="80" y="-810.0000000000001" as="targetPoint"/>
                    </mxGeometry>
                </mxCell>
                <mxCell id="59" value="" style="rounded=1;whiteSpace=wrap;html=1;shadow=1;" parent="1" vertex="1">
                    <mxGeometry x="100" y="-810" width="120" height="60" as="geometry"/>
                </mxCell>
                <mxCell id="60" value="&lt;font style=&quot;font-size: 14px;&quot;&gt;Dinam&amp;nbsp; &amp;nbsp;150 V&lt;/font&gt;" style="text;html=1;strokeColor=none;fillColor=none;align=center;verticalAlign=middle;whiteSpace=wrap;rounded=0;shadow=1;" parent="1" vertex="1">
                    <mxGeometry x="110" y="-787.5" width="100" height="15" as="geometry"/>
                </mxCell>
                <mxCell id="67" value="" style="shape=cylinder3;whiteSpace=wrap;html=1;boundedLbl=1;backgroundOutline=1;size=15;rotation=90;" parent="1" vertex="1">
                    <mxGeometry x="175.72" y="-880" width="190" height="14.28" as="geometry"/>
                </mxCell>
                <mxCell id="68" value="" style="edgeStyle=elbowEdgeStyle;elbow=horizontal;endArrow=classic;html=1;curved=0;rounded=0;endSize=8;startSize=8;fontFamily=Helvetica;fontSize=12;fontColor=default;strokeColor=#f00;" parent="1" edge="1">
                    <mxGeometry width="50" height="50" relative="1" as="geometry">
                        <mxPoint x="140" y="-840" as="sourcePoint"/>
                        <mxPoint x="140" y="-930" as="targetPoint"/>
                        <Array as="points">
                            <mxPoint x="140" y="-872.5"/>
                        </Array>
                    </mxGeometry>
                </mxCell>
                <mxCell id="72" value="" style="shape=curlyBracket;whiteSpace=wrap;html=1;rounded=1;labelPosition=left;verticalLabelPosition=middle;align=right;verticalAlign=middle;shadow=1;strokeColor=#fff;fontFamily=Helvetica;fontSize=12;fontColor=default;fillColor=#4D4D4D;size=0.5;" parent="1" vertex="1">
                    <mxGeometry x="50" y="-963.02" width="30" height="183.02" as="geometry"/>
                </mxCell>
                <mxCell id="75" value="&lt;font style=&quot;font-size: 14px;&quot;&gt;50 V&lt;/font&gt;" style="text;html=1;strokeColor=none;fillColor=none;align=center;verticalAlign=middle;whiteSpace=wrap;rounded=0;shadow=1;fontFamily=Verdana;fontSize=18;fontColor=default;rotation=-90;" parent="1" vertex="1">
                    <mxGeometry x="125.72000000000003" y="-890" width="50" height="20" as="geometry"/>
                </mxCell>
                <mxCell id="78" value="&lt;font style=&quot;font-size: 14px;&quot;&gt;Ortiqcha elektr toki: 100 V&lt;/font&gt;" style="text;html=1;strokeColor=none;fillColor=none;align=center;verticalAlign=middle;whiteSpace=wrap;rounded=0;shadow=1;fontFamily=Verdana;fontSize=12;fontColor=default;" parent="1" vertex="1">
                    <mxGeometry x="34.64" y="-720" width="250.72" height="30" as="geometry"/>
                </mxCell>
                <mxCell id="79" value="" style="html=1;whiteSpace=wrap;shape=isoCube2;backgroundOutline=1;isoAngle=15;rounded=1;shadow=1;strokeColor=#fff;fontFamily=Verdana;fontSize=12;fontColor=default;fillColor=#18141D;" parent="1" vertex="1">
                    <mxGeometry x="350" y="-775" width="90" height="100" as="geometry"/>
                </mxCell>
                <UserObject label="&lt;font style=&quot;font-size: 14px;&quot;&gt;Tok ko`paytiruvchi: 240 V&lt;/font&gt;" placeholders="1" name="Variable" id="82">
                    <mxCell style="text;html=1;strokeColor=none;fillColor=none;align=center;verticalAlign=middle;whiteSpace=wrap;overflow=hidden;rounded=1;shadow=1;fontFamily=Verdana;fontSize=12;fontColor=default;" parent="1" vertex="1">
                        <mxGeometry x="290" y="-675" width="220" height="25" as="geometry"/>
                    </mxCell>
                </UserObject>
                <mxCell id="92" value="" style="rounded=1;whiteSpace=wrap;html=1;shadow=1;strokeColor=#fff;fontFamily=Verdana;fontSize=14;fontColor=default;fillColor=#18141D;" parent="1" vertex="1">
                    <mxGeometry x="350" y="-1050" width="120" height="60" as="geometry"/>
                </mxCell>
                <mxCell id="94" value="" style="rounded=1;whiteSpace=wrap;html=1;shadow=1;strokeColor=#fff;fontFamily=Verdana;fontSize=14;fontColor=default;fillColor=#18141D;" parent="1" vertex="1">
                    <mxGeometry x="365.72" y="-1037.5" width="120" height="60" as="geometry"/>
                </mxCell>
                <mxCell id="96" value="" style="endArrow=none;html=1;strokeColor=#fff;fontFamily=Verdana;fontSize=14;fontColor=default;fillColor=#fff;exitX=0.015;exitY=0.071;exitDx=0;exitDy=0;exitPerimeter=0;entryX=0.016;entryY=0.055;entryDx=0;entryDy=0;entryPerimeter=0;" parent="1" source="92" target="94" edge="1">
                    <mxGeometry width="50" height="50" relative="1" as="geometry">
                        <mxPoint x="370" y="-990" as="sourcePoint"/>
                        <mxPoint x="420" y="-1040" as="targetPoint"/>
                    </mxGeometry>
                </mxCell>
                <mxCell id="97" value="" style="endArrow=none;html=1;strokeColor=#fff;fontFamily=Verdana;fontSize=14;fontColor=default;fillColor=#fff;exitX=0.048;exitY=0.992;exitDx=0;exitDy=0;exitPerimeter=0;entryX=0.032;entryY=0.971;entryDx=0;entryDy=0;entryPerimeter=0;" parent="1" source="92" target="94" edge="1">
                    <mxGeometry width="50" height="50" relative="1" as="geometry">
                        <mxPoint x="370" y="-990" as="sourcePoint"/>
                        <mxPoint x="420" y="-1040" as="targetPoint"/>
                    </mxGeometry>
                </mxCell>
                <mxCell id="98" value="" style="endArrow=none;html=1;strokeColor=#fff;fontFamily=Verdana;fontSize=14;fontColor=default;fillColor=#fff;entryX=0.961;entryY=0.018;entryDx=0;entryDy=0;entryPerimeter=0;exitX=0.955;exitY=0.013;exitDx=0;exitDy=0;exitPerimeter=0;" parent="1" source="94" target="92" edge="1">
                    <mxGeometry width="50" height="50" relative="1" as="geometry">
                        <mxPoint x="440" y="-1000" as="sourcePoint"/>
                        <mxPoint x="490" y="-1050" as="targetPoint"/>
                    </mxGeometry>
                </mxCell>
                <mxCell id="99" value="&lt;font style=&quot;font-size: 14px;&quot;&gt;50 V&lt;/font&gt;" style="text;html=1;strokeColor=none;fillColor=none;align=center;verticalAlign=middle;whiteSpace=wrap;rounded=0;shadow=1;fontFamily=Verdana;fontSize=14;fontColor=default;" parent="1" vertex="1">
                    <mxGeometry x="368" y="-1022.5" width="115" height="30" as="geometry"/>
                </mxCell>
                <mxCell id="100" value="" style="endArrow=classic;html=1;strokeColor=#2eec77;fontFamily=Verdana;fontSize=12;fontColor=default;fillColor=#fff;exitX=0.1;exitY=0.5;exitDx=0;exitDy=0;exitPerimeter=0;" parent="1" source="72" edge="1">
                    <mxGeometry width="50" height="50" relative="1" as="geometry">
                        <mxPoint x="40" y="-870" as="sourcePoint"/>
                        <mxPoint x="340" y="-720" as="targetPoint"/>
                        <Array as="points">
                            <mxPoint x="20" y="-870"/>
                            <mxPoint x="20" y="-720"/>
                        </Array>
                    </mxGeometry>
                </mxCell>
                <mxCell id="102" value="" style="endArrow=classic;html=1;strokeColor=#2eec77;fontFamily=Verdana;fontSize=12;fontColor=default;fillColor=#fff;" parent="1" edge="1">
                    <mxGeometry width="50" height="50" relative="1" as="geometry">
                        <mxPoint x="450" y="-720" as="sourcePoint"/>
                        <mxPoint x="530" y="-720" as="targetPoint"/>
                    </mxGeometry>
                </mxCell>
                <mxCell id="105" value="" style="endArrow=classic;html=1;strokeColor=#00f;fontFamily=Verdana;fontSize=12;fontColor=default;fillColor=#fff;" parent="1" edge="1">
                    <mxGeometry width="50" height="50" relative="1" as="geometry">
                        <mxPoint x="340" y="-1020" as="sourcePoint"/>
                        <mxPoint x="69.99999999999989" y="-990" as="targetPoint"/>
                        <Array as="points">
                            <mxPoint x="300" y="-1050"/>
                            <mxPoint x="50" y="-1050"/>
                            <mxPoint x="50" y="-990"/>
                        </Array>
                    </mxGeometry>
                </mxCell>
                <mxCell id="108" value="" style="shape=cylinder3;whiteSpace=wrap;html=1;boundedLbl=1;backgroundOutline=1;size=15;rotation=90;" parent="1" vertex="1">
                    <mxGeometry x="254.14000000000001" y="-974.25" width="15.86" height="8.49" as="geometry"/>
                </mxCell>
            </root>
        </mxGraphModel>
    </diagram>
</mxfile>